<svg width="44" height="45" viewBox="0 0 44 45" fill="none" xmlns="http://www.w3.org/2000/svg">
<path d="M25.3665 13.7762C22.0095 16.2091 20.7323 17.8319 20.265 18.5959C20.3555 18.5959 20.4445 18.6048 20.535 18.6048C22.2572 18.6048 23.6413 17.6109 24.5521 16.9345L24.9971 16.6036C25.3368 16.3559 25.4733 15.0327 25.3665 13.7762Z" fill="#EA1C24"/>
<path d="M1.33504 2.22786L0.688285 23.1212L0 0.892822H41.7525C37.7563 1.90893 32.9309 3.1342 29.8499 3.96637C16.4654 7.40928 10.9414 17.8389 10.618 18.6933C10.3777 19.3222 10.4696 19.4468 10.7396 19.7139L12.4618 19.8266C13.5027 19.9021 14.5457 19.7112 15.4923 19.2718C16.6098 18.7427 17.6976 17.4186 18.7558 15.2993C18.8596 16.4653 18.9006 17.0809 18.8789 17.1461L22.9478 13.2612L22.9685 13.9628L31.2472 6.94053L25.7588 13.2419C25.7691 13.322 25.7795 13.4199 25.7914 13.5386C25.8593 14.0985 25.8807 14.6632 25.8552 15.2267L31.317 13.012L26.2334 16.4237C33.0822 15.5678 37.8394 15.3008 43.9998 15.2207V27.2182C43.5311 26.346 42.1396 24.603 41.7747 24.2085C41.5315 23.9593 41.2926 23.6967 41.0256 23.4549C40.4877 22.9465 39.9141 22.477 39.3094 22.0502C38.9949 21.8425 38.6908 21.6185 38.3585 21.4346L38.142 21.3085L37.8675 21.1468L37.3617 20.8961C37.0294 20.7151 36.6764 20.5787 36.3322 20.4274C36.1631 20.3487 35.9837 20.2909 35.8101 20.2271L35.5787 20.144L35.282 20.0387C34.929 19.9304 34.5774 19.834 34.2333 19.742L33.7734 19.6412L33.1979 19.5166L32.7529 19.4483L32.1936 19.3623C31.8628 19.3267 31.5395 19.303 31.2265 19.2733L31.1226 19.2629L30.9921 19.251H29.8781C29.7298 19.251 29.5963 19.251 29.4598 19.2599L29.1067 19.2718L28.678 19.2866C28.4303 19.2866 28.1959 19.3252 27.9764 19.3415L27.6946 19.3667L27.3623 19.3979C27.1724 19.4127 27.0003 19.4468 26.8431 19.4676L26.3462 19.5403L25.8626 19.6115H26.2305L26.8505 19.6011H27.3697L27.6278 19.61L27.9809 19.6249C28.1959 19.6352 28.4259 19.6412 28.6736 19.659L29.0014 19.6901L29.4375 19.7331L29.8425 19.7776L30.0249 19.8073L30.2608 19.8444L30.4492 19.8741L30.6925 19.9126L30.7889 19.9289L30.912 19.9482L31.0084 19.969L31.133 19.9957C31.4297 20.0639 31.7264 20.1262 32.0408 20.2004L32.4458 20.3176L32.9709 20.4659L33.3803 20.6143L33.9069 20.8041C34.2155 20.9376 34.527 21.0697 34.8355 21.2091L35.0343 21.3114L35.2894 21.4435C35.4421 21.5163 35.5907 21.5976 35.7344 21.6867C36.0311 21.8662 36.3278 22.0264 36.6037 22.2297L37.025 22.5174L37.4255 22.8304C37.6984 23.0292 37.9402 23.265 38.1924 23.4801C38.6681 23.9207 39.1118 24.3946 39.52 24.8982C39.7232 25.1356 39.8998 25.3922 40.0807 25.6399C40.1682 25.763 40.2498 25.8891 40.3314 26.0108C40.413 26.1324 40.4946 26.2526 40.5673 26.3772C40.8511 26.8338 41.1096 27.3058 41.3416 27.7908C42.4124 29.9644 43.3015 32.2229 43.9998 34.5431V44.8911L37.154 44.679C38.0752 42.2952 38.2814 40.2853 38.4505 38.9102C38.7887 36.8053 38.406 33.1636 37.154 30.4208C34.6323 25.5465 30.9372 24.4473 25.6609 24.2708C24.4742 24.2322 18.1105 24.5511 13.6055 30.894C12.5093 32.4382 11.7172 33.3015 12.8178 35.9212C7.56273 32.6301 6.39877 27.6094 9.32596 20.859C9.52074 20.4039 9.58197 19.9028 9.50248 19.4142C9.46364 19.1712 9.49079 18.9222 9.5811 18.6933C12.7333 10.8388 18.6401 6.54151 22.35 4.15624C23.2212 3.60866 24.1242 3.11333 25.0542 2.67287L1.33504 2.22786ZM25.02 16.5572C25.3953 16.2398 25.4087 14.7149 25.3494 13.8412C22.0637 16.225 20.7628 17.8181 20.3059 18.5672C20.3949 18.5672 20.4839 18.5672 20.5729 18.5672C22.2743 18.5672 23.6346 17.5659 24.5335 16.9029C24.7115 16.7723 24.8791 16.6522 25.0275 16.5498L25.02 16.5572Z" fill="white"/>
<path d="M33.9059 29.1065C36.49 32.4412 37.1294 36.4959 35.824 41.2706C35.5421 42.3475 35.1683 43.8295 34.9725 44.6142L22.2388 44.2196L32.6346 43.8888C33.4416 42.2674 36.7466 34.9883 33.9059 29.1065Z" fill="white"/>
</svg>
