<svg width="32" height="32" viewBox="0 0 32 32" fill="none" xmlns="http://www.w3.org/2000/svg">
<path d="M30.2222 22.2222C28.0889 22.2222 25.9556 21.8667 23.8222 21.1556C23.2889 20.9778 22.5777 21.1556 22.0444 21.5111L18.1333 25.4222C13.1556 22.9333 9.06667 18.6667 6.4 13.6889L10.3111 9.77778C10.8444 9.24444 11.0222 8.53333 10.6667 8C10.1333 6.04444 9.77778 3.91111 9.77778 1.77778C9.77778 0.711111 9.06667 0 8 0H1.77778C0.711111 0 0 0.711111 0 1.77778C0 18.4889 13.5111 32 30.2222 32C31.2889 32 32 31.2889 32 30.2222V24C32 22.9333 31.2889 22.2222 30.2222 22.2222ZM28.4444 16H32C32 7.11111 24.8889 0 16 0V3.55556C22.9333 3.55556 28.4444 9.06667 28.4444 16ZM21.3333 16H24.8889C24.8889 11.0222 20.9778 7.11111 16 7.11111V10.6667C19.0222 10.6667 21.3333 12.9778 21.3333 16Z" fill="#D43C38"/>
</svg>
