<svg width="16" height="20" viewBox="0 0 16 20" fill="none" xmlns="http://www.w3.org/2000/svg">
<path d="M8.00003 0C12.4112 0 16 3.45173 16 7.6944C16 11.7047 9.35985 18.6088 8.6028 19.3838L8.00003 20L7.39726 19.3838C6.64004 18.6094 9.53674e-07 11.7047 9.53674e-07 7.6944C-0.000343323 3.45173 3.58849 0 8.00003 0ZM8.00003 10.8786C9.82527 10.8786 11.3104 9.45018 11.3104 7.69467C11.3104 5.93911 9.82527 4.51079 8.00003 4.51079C6.17439 4.51079 4.68968 5.93917 4.68968 7.69467C4.68968 9.45024 6.17439 10.8786 8.00003 10.8786Z" fill="white" fill-opacity="0.5"/>
</svg>
