<svg width="81" height="80" viewBox="0 0 81 80" fill="none" xmlns="http://www.w3.org/2000/svg">
<path d="M46.1227 23.4256C40.0189 27.8491 37.6966 30.7998 36.8469 32.1889C37.0115 32.1889 37.1733 32.2051 37.3378 32.2051C40.4693 32.2051 42.9858 30.398 44.6419 29.168L45.4511 28.5665C46.0688 28.1161 46.3169 25.7102 46.1227 23.4256Z" fill="#EA1C24"/>
<path d="M2.42743 2.42743L1.25147 40.4167L0 0H75.9165C68.6504 1.84754 59.8766 4.07539 54.2746 5.58848C29.9383 11.8486 19.8941 30.8122 19.3062 32.3657C18.8692 33.5093 19.0364 33.7359 19.5273 34.2214L22.6587 34.4264C24.5513 34.5637 26.4477 34.2165 28.169 33.4176C30.2008 32.4556 32.1787 30.048 34.1027 26.1947C34.2915 28.3146 34.3661 29.4339 34.3266 29.5526L41.7248 22.4888L41.7626 23.7645L56.8153 10.9963L46.8359 22.4537C46.8548 22.5994 46.8737 22.7774 46.8952 22.9932C47.0188 24.0113 47.0576 25.0379 47.0112 26.0625L56.9421 22.0357L47.699 28.2391C60.1517 26.6828 68.8015 26.1974 80.0027 26.0517V47.8662C79.1504 46.2803 76.6205 43.1112 75.957 42.3937C75.5146 41.9406 75.0804 41.4632 74.5949 41.0236C73.6167 40.0991 72.5739 39.2455 71.4743 38.4694C70.9025 38.0918 70.3496 37.6845 69.7455 37.3501L69.3517 37.1208L68.8527 36.8268L67.933 36.371C67.3288 36.0419 66.6869 35.7938 66.0612 35.5187C65.7537 35.3757 65.4273 35.2706 65.1118 35.1546L64.691 35.0035L64.1516 34.812C63.5097 34.6152 62.8704 34.4398 62.2447 34.2726L61.4086 34.0892L60.3621 33.8626L59.553 33.7386L58.5361 33.5821C57.9347 33.5174 57.3467 33.4743 56.7776 33.4203L56.5888 33.4014L56.3514 33.3799H54.3259C54.0562 33.3799 53.8134 33.3799 53.5653 33.396L52.9234 33.4176L52.1439 33.4446C51.6935 33.4446 51.2673 33.5147 50.8681 33.5444L50.3557 33.5902L49.7515 33.6469C49.4063 33.6738 49.0934 33.7359 48.8075 33.7736L47.904 33.9058L47.0247 34.0353H47.6936L48.821 34.0164H49.765L50.2343 34.0326L50.8762 34.0595C51.2673 34.0784 51.6854 34.0892 52.1358 34.1216L52.7319 34.1782L53.5248 34.2564L54.2612 34.3373L54.5929 34.3913L55.0217 34.4587L55.3643 34.5127L55.8066 34.5828L55.9819 34.6125L56.2058 34.6475L56.3811 34.6853L56.6077 34.7338C57.1471 34.8579 57.6865 34.9712 58.2583 35.106L58.9946 35.3191L59.9494 35.5888L60.6938 35.8585L61.6513 36.2038C62.2123 36.4465 62.7787 36.6866 63.3397 36.9401L63.7012 37.1262L64.1651 37.3662C64.4427 37.4987 64.7128 37.6464 64.9742 37.8086C65.5136 38.1349 66.0531 38.4262 66.5547 38.7957L67.3207 39.319L68.049 39.8881C68.5452 40.2495 68.9849 40.6783 69.4434 41.0694C70.3083 41.8704 71.115 42.7321 71.8573 43.6479C72.2268 44.0794 72.5478 44.546 72.8768 44.9965C73.036 45.2203 73.1843 45.4496 73.3327 45.6707C73.481 45.8919 73.6293 46.1104 73.7615 46.3369C74.2776 47.1673 74.7476 48.0254 75.1694 48.9073C77.1163 52.8595 78.7329 56.966 80.0027 61.1847V80L67.5554 79.6143C69.2303 75.28 69.6052 71.6254 69.9127 69.1251C70.5276 65.2979 69.8318 58.6764 67.5554 53.6894C62.9702 44.8265 56.2516 42.828 46.6579 42.507C44.5002 42.4369 32.9294 43.0168 24.7382 54.5497C22.745 57.3575 21.3047 58.9272 23.306 63.6904C13.7509 57.7063 11.6346 48.5774 16.9569 36.3036C17.3111 35.4761 17.4224 34.5649 17.2779 33.6765C17.2073 33.2347 17.2566 32.782 17.4209 32.3657C23.1523 18.0844 33.8923 10.2707 40.6379 5.93372C42.222 4.93808 43.8638 4.03744 45.5548 3.23657L2.42743 2.42743ZM45.4927 28.4818C46.1751 27.9047 46.1994 25.132 46.0915 23.5434C40.1173 27.8777 37.7519 30.7744 36.9212 32.1365C37.083 32.1365 37.2449 32.1365 37.4067 32.1365C40.5003 32.1365 42.9736 30.3159 44.6081 29.1103C44.9317 28.8729 45.2365 28.6545 45.5062 28.4684L45.4927 28.4818Z" fill="white"/>
<path d="M61.6494 51.2999C66.3479 57.3633 67.5104 64.7357 65.1369 73.4172C64.6244 75.3754 63.9447 78.0699 63.5887 79.4968L40.4356 78.7793L59.3378 78.1778C60.8051 75.2297 66.8146 61.9944 61.6494 51.2999Z" fill="white"/>
</svg>
