<svg width="40" height="40" viewBox="0 0 40 40" fill="none" xmlns="http://www.w3.org/2000/svg">
<path d="M14.0898 23.9591L15.3657 25.2215C16.0535 25.8881 17.3768 26.0809 18.0335 25.4183L34.2082 7.54648C34.3922 7.35586 34.5369 7.13087 34.634 6.88433C34.7311 6.6378 34.7786 6.37456 34.774 6.10964C34.7693 5.84472 34.7125 5.58332 34.6069 5.34034C34.5012 5.09737 34.3487 4.87759 34.1581 4.69356C33.9674 4.50952 33.7425 4.36483 33.4959 4.26775C33.2494 4.17067 32.9861 4.1231 32.7212 4.12775C32.4563 4.1324 32.1949 4.18919 31.9519 4.29487C31.709 4.40055 31.4892 4.55305 31.3051 4.74366L13.8656 21.297C13.1796 21.9659 13.4021 23.2925 14.0898 23.9591Z" fill="white"/>
<path d="M13.4545 30.1368C13.6863 29.8976 13.887 29.6303 14.0519 29.341C14.3479 28.7319 14.4293 28.0407 14.2829 27.3796C14.1366 26.7184 13.7711 26.1262 13.2458 25.6989C12.7204 25.2716 12.0661 25.0344 11.389 25.0259C10.7119 25.0173 10.0518 25.2378 9.51584 25.6516L9.43874 25.7219L9.17126 25.9787L9.07686 26.0757C8.47111 26.7962 8.03333 27.6426 7.79525 28.5533C7.19693 30.7082 7.03634 33.2223 4.89717 34.778C2.00649 36.84 10.6511 33.109 13.4545 30.1368Z" fill="white"/>
</svg>
