<svg width="41" height="41" viewBox="0 0 41 41" fill="none" xmlns="http://www.w3.org/2000/svg">
<g clip-path="url(#clip0_684_31)">
<g clip-path="url(#clip1_684_31)">
<path fill-rule="evenodd" clip-rule="evenodd" d="M39.7273 12.0727C39.8348 12.1984 39.9135 12.346 39.9582 12.5053C40.0028 12.6645 40.0122 12.8316 39.9857 12.9948L38.0781 24.7678C37.9507 25.5675 37.5425 26.2955 36.9268 26.8214C36.3111 27.3473 35.5282 27.6366 34.7185 27.6375L13.8691 27.7284C13.5671 27.7297 13.2779 27.851 13.0653 28.0655C12.8526 28.28 12.7339 28.5702 12.7352 28.8723C12.7365 29.1744 12.8578 29.4635 13.0723 29.6762C13.2868 29.8889 13.577 30.0076 13.8791 30.0063L32.1021 29.9268C32.8274 29.9235 33.5349 30.1512 34.1223 30.5768C34.7096 31.0024 35.1463 31.6038 35.3691 32.2941C35.5919 32.9844 35.5893 33.7276 35.3615 34.4163C35.1338 35.1049 34.6929 35.7033 34.1025 36.1247C33.5121 36.5461 32.803 36.7687 32.0777 36.7602C31.3524 36.7518 30.6486 36.5128 30.0682 36.0777C29.4878 35.6427 29.0609 35.0343 28.8493 34.3405C28.6376 33.6467 28.6523 32.9036 28.8911 32.2187L21.6657 32.2502C21.8504 32.7648 21.9089 33.3163 21.8363 33.8582C21.7638 34.4001 21.5622 34.9167 21.2486 35.3645C20.9349 35.8124 20.5184 36.1784 20.034 36.432C19.5496 36.6855 19.0114 36.819 18.4646 36.8214C17.9179 36.8238 17.3786 36.6949 16.8919 36.4457C16.4053 36.1964 15.9856 35.834 15.6681 35.3889C15.3506 34.9438 15.1445 34.429 15.0672 33.8877C14.9899 33.3464 15.0436 32.7945 15.2239 32.2783L13.889 32.2842C13.0936 32.2867 12.3221 32.0116 11.7078 31.5063C11.0934 31.001 10.6746 30.2971 10.5235 29.5161C10.3725 28.7351 10.4987 27.9259 10.8803 27.228C11.262 26.53 11.8752 25.9871 12.6143 25.6929C11.9797 20.201 11.523 16.2502 11.1944 13.4078C10.3531 6.13076 10.3517 6.11846 10.357 6.11085C10.357 6.11085 10.358 6.10951 10.358 6.10353C10.3566 5.80147 10.2354 5.5123 10.0209 5.29964C9.80633 5.08698 9.51612 4.96824 9.21405 4.96956L2.22858 5.00003C1.92652 5.00135 1.6363 4.88262 1.42178 4.66996C1.20725 4.4573 1.08599 4.16813 1.08468 3.86606C1.08336 3.564 1.20209 3.27378 1.41475 3.05926C1.62741 2.84473 1.91658 2.72348 2.21864 2.72216L9.20412 2.69169C10.0981 2.68877 10.9577 3.0359 11.5991 3.65877C12.2404 4.28165 12.6124 5.13079 12.6355 6.0245L13.3007 11.7855L17.2164 11.7684L17.2015 8.3516C17.2002 8.04953 17.3189 7.75932 17.5316 7.54479C17.7442 7.33027 18.0334 7.20901 18.3355 7.20769L24.0302 7.18285L24.0252 6.04392C24.0239 5.74185 24.1426 5.45164 24.3553 5.23711C24.5679 5.02259 24.8571 4.90133 25.1592 4.90001L34.2706 4.86027C34.5727 4.85896 34.8629 4.97769 35.0774 5.19035C35.292 5.40301 35.4132 5.69218 35.4145 5.99424L35.4394 11.6889L38.8562 11.674C39.0216 11.6732 39.1853 11.7084 39.3357 11.7773C39.4862 11.8461 39.6198 11.9469 39.7273 12.0727ZM33.2559 33.3386C33.2549 33.1134 33.1872 32.8935 33.0612 32.7067C32.9352 32.52 32.7567 32.3748 32.5482 32.2895C32.3397 32.2042 32.1106 32.1826 31.8899 32.2275C31.6692 32.2724 31.4667 32.3818 31.3081 32.5418C31.1495 32.7018 31.0419 32.9052 30.9989 33.1263C30.956 33.3474 30.9795 33.5763 31.0666 33.7841C31.1537 33.9918 31.3005 34.169 31.4883 34.2934C31.6762 34.4177 31.8967 34.4835 32.1219 34.4825C32.424 34.4812 32.7132 34.36 32.9258 34.1454C33.1385 33.9309 33.2572 33.6407 33.2559 33.3386ZM19.5887 33.3983C19.5877 33.173 19.5199 32.9531 19.394 32.7663C19.268 32.5796 19.0895 32.4344 18.881 32.3491C18.6725 32.2638 18.4434 32.2422 18.2227 32.2871C18.0019 32.332 17.7995 32.4414 17.6409 32.6014C17.4823 32.7614 17.3747 32.9648 17.3317 33.1859C17.2887 33.407 17.3123 33.6359 17.3994 33.8437C17.4865 34.0514 17.6333 34.2286 17.8211 34.353C18.0089 34.4773 18.2294 34.5431 18.4547 34.5422C18.7568 34.5408 19.0459 34.4196 19.2586 34.2051C19.4713 33.9905 19.59 33.7003 19.5887 33.3983ZM19.9165 21.6561C19.9196 22.3656 19.3471 22.9432 18.6376 22.9463C17.9281 22.9493 17.3506 22.3768 17.3475 21.6673L17.3251 16.5293C17.322 15.8198 17.8945 15.2423 18.604 15.2392C19.3135 15.2361 19.891 15.8086 19.8941 16.5181L19.9165 21.6561ZM26.3446 22.9126C27.0541 22.9095 27.6266 22.332 27.6235 21.6225L27.6011 16.4845C27.598 15.775 27.0205 15.2025 26.311 15.2056C25.6015 15.2086 25.029 15.7862 25.0321 16.4957L25.0545 21.6337C25.0576 22.3432 25.6351 22.9157 26.3446 22.9126ZM35.3309 21.5889C35.334 22.2984 34.7615 22.8759 34.052 22.879C33.3425 22.8821 32.765 22.3096 32.7619 21.6001L32.7395 16.4621C32.7364 15.7526 33.3089 15.175 34.0184 15.1719C34.7279 15.1688 35.3054 15.7414 35.3085 16.4509L35.3309 21.5889Z" fill="white"/>
</g>
</g>
<defs>
<clipPath id="clip0_684_31">
<rect width="40" height="40" fill="white" transform="translate(0 0.174438) rotate(-0.249903)"/>
</clipPath>
<clipPath id="clip1_684_31">
<rect width="40" height="36" fill="white" transform="translate(1.00549 2.20508) rotate(-0.249903)"/>
</clipPath>
</defs>
</svg>
