<svg width="38" height="38" viewBox="0 0 38 38" fill="none" xmlns="http://www.w3.org/2000/svg">
<path fill-rule="evenodd" clip-rule="evenodd" d="M1.52308 19C1.52308 9.34776 9.34776 1.52307 19 1.52307C28.6522 1.52307 36.4769 9.34776 36.4769 19C36.4769 28.6522 28.6522 36.4769 19 36.4769C9.34776 36.4769 1.52308 28.6522 1.52308 19ZM1.66103e-06 19C2.5784e-06 8.50659 8.50659 -2.5784e-06 19 -1.66103e-06C29.4934 -7.4367e-07 38 8.50659 38 19C38 29.4934 29.4934 38 19 38C8.50659 38 7.4367e-07 29.4934 1.66103e-06 19ZM14.468 18.5872L14.1037 19L14.468 19.4128L22.8503 28.9128C23.0783 29.1712 23.4726 29.1959 23.731 28.9679C23.9894 28.7399 24.014 28.3456 23.786 28.0872L15.7679 19L23.786 9.91282C24.014 9.65443 23.9894 9.26013 23.731 9.03214C23.4726 8.80414 23.0783 8.82879 22.8503 9.08718L14.468 18.5872Z" fill="white"/>
</svg>
