<svg width="38" height="38" viewBox="0 0 38 38" fill="none" xmlns="http://www.w3.org/2000/svg">
<path fill-rule="evenodd" clip-rule="evenodd" d="M36.4769 19C36.4769 28.6522 28.6522 36.4769 19 36.4769C9.34776 36.4769 1.52308 28.6522 1.52308 19C1.52308 9.34776 9.34776 1.52308 19 1.52308C28.6522 1.52308 36.4769 9.34776 36.4769 19ZM38 19C38 29.4934 29.4934 38 19 38C8.50659 38 0 29.4934 0 19C0 8.50659 8.50659 0 19 0C29.4934 0 38 8.50659 38 19ZM23.532 19.4128L23.8963 19L23.532 18.5872L15.1497 9.08718C14.9217 8.82879 14.5274 8.80414 14.269 9.03214C14.0106 9.26013 13.986 9.65443 14.214 9.91282L22.2321 19L14.214 28.0872C13.986 28.3456 14.0106 28.7399 14.269 28.9679C14.5274 29.1959 14.9217 29.1712 15.1497 28.9128L23.532 19.4128Z" fill="white"/>
</svg>
